Patient4_TMGait_0pt6_02_right_15_GRF.mot
version=1
nRows=45
nColumns=19
inDegrees=no
endheader
time	F1x	F1y	F1z	M1x	M1y	M1z	F2x	F2y	F2z	M2x	M2y	M2z	EC1x	EC1y	EC1z	EC2x	EC2y	EC2z
17.83	7.9953	801.4551	53.3251	-304.6625	-47.0295	795.7672	7.9929	-18.1148	4.6525	-5.2674	-11.365	-20.84	-0.0592	0.0182	-0.0073	-0.0462	0.0165	0.9585
17.8424	6.5794	789.3781	55.623	-300.082	-50.09	780.7201	5.1875	-11.098	3.2751	-3.177	-7.7047	-12.7557	-0.0592	0.0182	-0.0073	-0.0462	0.0165	0.9585
17.8547	5.8495	775.9481	57.3886	-294.874	-52.1972	764.0027	2.8466	-5.1548	2.0612	-1.3868	-4.5708	-5.8915	-0.0592	0.0182	-0.0073	-0.0462	0.0165	0.9585
17.8671	5.8004	762.1207	58.5006	-289.3941	-53.2234	746.7347	1.0757	-0.60857	1.1006	-0.00019222	-2.1551	-0.62456	-0.0592	0.0182	-0.0073	-0.0462	0.0165	0.9585
17.8794	6.2966	748.9117	58.9099	-284.0471	-53.1966	730.0149	-0.13322	2.5461	0.40687	0.97955	-0.46156	3.0369	-0.0592	0.0182	-0.0073	-0.0462	0.0165	0.9585
17.8918	7.1635	737.2699	58.7123	-279.2184	-52.3158	714.841	-0.88633	4.5023	-0.053022	1.6042	0.6173	5.3142	-0.0592	0.0182	-0.0073	-0.0462	0.0165	0.9585
17.9041	8.2539	727.8813	58.0058	-275.2009	-50.7736	701.8797	-1.2965	5.5069	-0.32633	1.9405	1.2215	6.4835	-0.0592	0.0182	-0.0073	-0.0462	0.0165	0.9585
17.9165	9.4671	721.1379	56.9642	-272.1656	-48.8112	691.4968	-1.4827	5.7951	-0.4699	2.0519	1.5019	6.8111	-0.0592	0.0182	-0.0073	-0.0462	0.0165	0.9585
17.9289	10.7876	717.1431	55.7209	-270.1668	-46.5971	683.7566	-1.5496	5.5426	-0.53364	1.9836	1.5897	6.5005	-0.0592	0.0182	-0.0073	-0.0462	0.0165	0.9585
17.9412	12.2241	715.7456	54.4318	-269.1509	-44.303	678.4774	-1.5706	4.8448	-0.55439	1.7559	1.58	5.6679	-0.0592	0.0182	-0.0073	-0.0462	0.0165	0.9585
17.9536	13.8106	716.5996	53.1935	-268.982	-42.0262	675.277	-1.5926	3.743	-0.55797	1.3711	1.5344	4.3722	-0.0592	0.0182	-0.0073	-0.0462	0.0165	0.9585
17.9659	15.591	719.2136	52.1068	-269.4594	-39.8551	673.6718	-1.6166	2.2218	-0.55027	0.81553	1.4736	2.5929	-0.0592	0.0182	-0.0073	-0.0462	0.0165	0.9585
17.9783	17.6045	722.9887	51.2261	-270.3407	-37.8275	673.0921	-1.6306	0.27871	-0.53676	0.080893	1.4059	0.32744	-0.0592	0.0182	-0.0073	-0.0462	0.0165	0.9585
17.9906	19.861	727.2997	50.6284	-271.37	-36.0037	672.9558	-1.5533	-2.0498	-0.50912	-0.81996	1.3008	-2.3854	-0.0592	0.0182	-0.0073	-0.0462	0.0165	0.9585
18.003	22.3499	731.5667	50.3837	-272.3087	-34.4387	672.7485	-1.3056	-4.5892	-0.46219	-1.8183	1.1175	-5.3233	-0.0592	0.0182	-0.0073	-0.0462	0.0165	0.9585
18.0154	25.0256	735.29	50.5643	-272.9514	-33.2046	672.0346	-0.74689	-6.9638	-0.38068	-2.7616	0.78632	-8.0574	-0.0592	0.0182	-0.0073	-0.0462	0.0165	0.9585
18.0277	27.8293	738.1237	51.2125	-273.1601	-32.3551	670.5322	0.25514	-8.489	-0.25244	-3.3754	0.24282	-9.8001	-0.0592	0.0182	-0.0073	-0.0462	0.0165	0.9585
18.0401	30.7237	739.9164	52.3237	-272.8859	-31.8943	668.1289	1.8515	-8.1298	-0.050284	-3.2411	-0.60341	-9.3745	-0.0592	0.0182	-0.0073	-0.0462	0.0165	0.9585
18.0524	33.6829	740.7304	53.841	-272.1708	-31.7778	664.9049	4.1463	-4.3972	0.24872	-1.7641	-1.8187	-5.0685	-0.0592	0.0182	-0.0073	-0.0462	0.0165	0.9585
18.0648	36.7003	740.7153	55.6586	-271.1047	-31.9143	660.9886	7.1656	4.5877	0.67152	1.8097	-3.4317	5.2763	-0.0592	0.0182	-0.0073	-0.0462	0.0165	0.9585
18.0771	39.7887	739.9556	57.6164	-269.7608	-32.1615	656.4637	10.752	20.9796	1.216	8.3415	-5.3625	24.1567	-0.0592	0.0182	-0.0073	-0.0462	0.0165	0.9585
18.0895	42.9694	738.1883	59.5032	-268.0941	-32.3317	651.1084	14.4683	46.8666	1.8514	18.6647	-7.3855	53.9822	-0.0592	0.0182	-0.0073	-0.0462	0.0165	0.9585
18.1019	46.1972	734.593	61.0559	-265.8566	-32.2171	644.2496	17.4489	83.6419	2.4831	33.334	-9.0406	96.3588	-0.0592	0.0182	-0.0073	-0.0462	0.0165	0.9585
18.1142	49.3945	727.7186	61.9601	-262.5689	-31.5869	634.678	18.2788	131.0598	2.9426	52.2471	-9.5714	151.0179	-0.0592	0.0182	-0.0073	-0.0462	0.0165	0.9585
18.1266	52.3825	715.6559	61.8799	-257.5767	-30.2395	620.8455	15.1534	186.1087	2.9598	74.1975	-7.9846	214.5104	-0.0592	0.0182	-0.0073	-0.0462	0.0165	0.9585
18.1389	54.9077	696.3596	60.5099	-250.17	-28.0377	601.1047	7.2049	242.6946	2.1301	96.7342	-3.5251	279.8266	-0.0592	0.0182	-0.0073	-0.0462	0.0165	0.9585
18.1513	56.6588	668.1865	57.6701	-239.7683	-24.9786	574.1687	-3.5874	293.7664	-0.46616	116.9819	3.9955	338.7326	-0.0592	0.0182	-0.0073	-0.0462	0.0165	0.9585
18.1636	57.3269	630.3775	53.3998	-226.0835	-21.2307	539.4796	-14.5899	334.9474	-4.8649	133.1809	13.4812	385.8735	-0.0592	0.0182	-0.0073	-0.0462	0.0165	0.9585
18.176	56.6781	583.2621	48.0041	-209.1907	-17.1361	497.3713	-24.1746	366.7664	-10.4352	145.5509	23.5844	421.5213	-0.0592	0.0182	-0.0073	-0.0462	0.0165	0.9585
18.1884	54.5804	528.0773	41.951	-189.4802	-13.1109	448.9175	-31.786	393.1982	-16.4157	155.7114	33.2209	450.1545	-0.0592	0.0182	-0.0073	-0.0462	0.0165	0.9585
18.2007	50.9829	466.7594	35.6771	-167.5939	-9.5067	395.7609	-37.3516	418.7921	-21.8844	165.5334	41.3884	476.9611	-0.0592	0.0182	-0.0073	-0.0462	0.0165	0.9585
18.2131	45.8635	401.6846	29.543	-144.3443	-6.5949	339.9006	-41.1545	446.9653	-26.5298	176.3938	47.8472	505.8983	-0.0592	0.0182	-0.0073	-0.0462	0.0165	0.9585
18.2254	39.3223	335.5559	23.8079	-120.6762	-4.5269	283.5705	-43.3944	479.3823	-30.196	188.9582	52.5592	538.8229	-0.0592	0.0182	-0.0073	-0.0462	0.0165	0.9585
18.2378	31.6405	271.2642	18.7007	-97.6137	-3.3649	229.145	-44.4083	516.4013	-33.359	203.3169	56.1785	576.1938	-0.0592	0.0182	-0.0073	-0.0462	0.0165	0.9585
18.2501	23.402	211.5554	14.3592	-76.148	-2.9957	178.818	-44.4841	557.2796	-36.4345	219.1135	59.3126	617.2323	-0.0592	0.0182	-0.0073	-0.0462	0.0165	0.9585
18.2625	15.3391	158.6432	10.8605	-57.0877	-3.2033	134.3413	-44.0098	600.2748	-40.0084	235.5979	62.7272	660.1424	-0.0592	0.0182	-0.0073	-0.0462	0.0165	0.9585
18.2749	8.2277	113.8343	8.1575	-40.9234	-3.6725	96.693	-43.3223	643.1063	-44.1811	251.8469	66.6717	702.5145	-0.0592	0.0182	-0.0073	-0.0462	0.0165	0.9585
18.2872	2.5435	77.4501	6.1114	-27.7905	-4.1208	66.1059	-42.6919	683.5626	-49.0029	266.9895	71.278	742.0373	-0.0592	0.0182	-0.0073	-0.0462	0.0165	0.9585
18.2996	-1.4748	49.1081	4.5195	-17.567	-4.3065	42.2263	-42.2138	719.924	-54.0025	280.3939	76.091	776.9122	-0.0592	0.0182	-0.0073	-0.0462	0.0165	0.9585
18.3119	-3.8648	28.0197	3.2246	-9.9747	-4.1191	24.4271	-41.7962	750.9308	-58.7208	291.6338	80.584	805.839	-0.0592	0.0182	-0.0073	-0.0462	0.0165	0.9585
18.3243	-4.7662	13.1818	2.1299	-4.657	-3.5449	11.8683	-41.2911	775.6738	-62.5357	300.4331	84.0592	827.9001	-0.0592	0.0182	-0.0073	-0.0462	0.0165	0.9585
18.3366	-4.5986	3.5796	1.2388	-1.2387	-2.7438	3.7159	-40.5325	793.3912	-65.197	306.5661	86.1891	842.3299	-0.0592	0.0182	-0.0073	-0.0462	0.0165	0.9585
18.349	-3.8607	-1.8667	0.58502	0.67985	-1.9304	-0.93224	-39.4349	803.6922	-66.5699	309.9318	86.806	848.7862	-0.0592	0.0182	-0.0073	-0.0462	0.0165	0.9585
18.3614	-2.9198	-4.3183	0.17288	1.5256	-1.2461	-3.0445	-37.909	806.7097	-66.8155	310.6177	86.0465	847.4599	-0.0592	0.0182	-0.0073	-0.0462	0.0165	0.9585
18.3737	-1.9983	-4.7936	-0.058564	1.6709	-0.72209	-3.4823	-35.9762	803.3485	-66.0312	308.9997	84.0304	839.3604	-0.0592	0.0182	-0.0073	-0.0462	0.0165	0.9585
